<svg xmlns="http://www.w3.org/2000/svg" version="1.1" xmlns:xlink="http://www.w3.org/1999/xlink" xmlns:svgjs="http://svgjs.com/svgjs" width="1440" height="560" preserveAspectRatio="none" viewBox="0 0 1440 560"><g mask="url(&quot;#SvgjsMask1006&quot;)" fill="none"><rect width="1440" height="560" x="0" y="0" fill="url(#SvgjsLinearGradient1007)"></rect><path d="M733.523,38.485C754.252,38.855,770.918,22.935,780.654,4.631C789.761,-12.49,790.292,-32.966,780.403,-49.647C770.704,-66.008,752.543,-74.963,733.523,-74.873C714.667,-74.784,696.728,-65.596,687.403,-49.207C678.174,-32.986,680.529,-13.518,689.216,3C698.656,20.949,713.246,38.123,733.523,38.485" fill="rgba(28, 83, 142, 0.4)" class="triangle-float1"></path><path d="M1275.3570177940737 427.1721971100052L1204.7064238353853 572.0273813133629 1349.561608038743 642.6779752720513 1420.2122019974315 497.8227910686935z" fill="rgba(28, 83, 142, 0.4)" class="triangle-float2"></path><path d="M1136.0813724843927 91.83261456728128L1180.4954696072566 228.52515010082237 1272.7739080179338 47.41851744441733z" fill="rgba(28, 83, 142, 0.4)" class="triangle-float2"></path><path d="M1293.328,100.338C1323.363,99.699,1344.264,74.199,1359.29,48.185C1374.322,22.159,1386.73,-9.121,1371.524,-35.045C1356.434,-60.77,1323.11,-65.855,1293.328,-64.269C1266.675,-62.85,1242.328,-50.151,1228.337,-27.421C1213.589,-3.461,1209.561,26.022,1222.318,51.099C1236.316,78.615,1262.463,100.995,1293.328,100.338" fill="rgba(28, 83, 142, 0.4)" class="triangle-float3"></path><path d="M483.698,92.836C503.382,91.586,519.023,78.789,529.573,62.123C541.129,43.867,550.526,21.965,540.762,2.691C530.268,-18.026,506.892,-29.599,483.698,-28.437C462.22,-27.361,446.665,-10.574,435.749,7.954C424.611,26.859,415.693,49.564,426.485,68.669C437.398,87.989,461.554,94.242,483.698,92.836" fill="rgba(28, 83, 142, 0.4)" class="triangle-float2"></path><path d="M1507.039,563.836C1564.791,564.838,1631.883,571.534,1663.526,523.212C1696.99,472.109,1679.291,403.758,1644.94,353.247C1614.715,308.803,1560.763,294.726,1507.039,293.108C1449.378,291.372,1385.585,296.237,1353.963,344.485C1319.974,396.343,1324.195,467.095,1359.679,517.942C1391.235,563.161,1451.906,562.88,1507.039,563.836" fill="rgba(28, 83, 142, 0.4)" class="triangle-float2"></path></g><defs><mask id="SvgjsMask1006"><rect width="1440" height="560" fill="#ffffff"></rect></mask><linearGradient x1="15.28%" y1="-39.29%" x2="84.72%" y2="139.29%" gradientUnits="userSpaceOnUse" id="SvgjsLinearGradient1007"><stop stop-color="#0e2a47" offset="0"></stop><stop stop-color="#00459e" offset="1"></stop></linearGradient><style>
            @keyframes float1 {
                0%{transform: translate(0, 0)}
                50%{transform: translate(-10px, 0)}
                100%{transform: translate(0, 0)}
            }

            .triangle-float1 {
                animation: float1 5s infinite;
            }

            @keyframes float2 {
                0%{transform: translate(0, 0)}
                50%{transform: translate(-5px, -5px)}
                100%{transform: translate(0, 0)}
            }

            .triangle-float2 {
                animation: float2 4s infinite;
            }

            @keyframes float3 {
                0%{transform: translate(0, 0)}
                50%{transform: translate(0, -10px)}
                100%{transform: translate(0, 0)}
            }

            .triangle-float3 {
                animation: float3 6s infinite;
            }
        </style></defs></svg>