<svg xmlns="http://www.w3.org/2000/svg" version="1.1" xmlns:xlink="http://www.w3.org/1999/xlink" xmlns:svgjs="http://svgjs.com/svgjs" width="1440" height="560" preserveAspectRatio="none" viewBox="0 0 1440 560"><g mask="url(&quot;#SvgjsMask1698&quot;)" fill="none"><rect width="1440" height="560" x="0" y="0" fill="url(#SvgjsLinearGradient1699)"></rect><path d="M1440 0L766.81 0L1440 48.2z" fill="rgba(255, 255, 255, .1)"></path><path d="M766.81 0L1440 48.2L1440 299.22L485.37999999999994 0z" fill="rgba(255, 255, 255, .075)"></path><path d="M485.3799999999999 0L1440 299.22L1440 377.44000000000005L361.64999999999986 0z" fill="rgba(255, 255, 255, .05)"></path><path d="M361.64999999999986 0L1440 377.44000000000005L1440 468.38000000000005L217.40999999999985 0z" fill="rgba(255, 255, 255, .025)"></path><path d="M0 560L667.99 560L0 287.16z" fill="rgba(0, 0, 0, .1)"></path><path d="M0 287.16L667.99 560L727.28 560L0 149.18000000000004z" fill="rgba(0, 0, 0, .075)"></path><path d="M0 149.18000000000006L727.28 560L1153.31 560L0 115.89000000000007z" fill="rgba(0, 0, 0, .05)"></path><path d="M0 115.89000000000004L1153.31 560L1153.54 560L0 52.04000000000004z" fill="rgba(0, 0, 0, .025)"></path></g><defs><mask id="SvgjsMask1698"><rect width="1440" height="560" fill="#ffffff"></rect></mask><linearGradient x1="15.28%" y1="-39.29%" x2="84.72%" y2="139.29%" gradientUnits="userSpaceOnUse" id="SvgjsLinearGradient1699"><stop stop-color="#0e2a47" offset="0"></stop><stop stop-color="rgba(0, 0, 0, 1)" offset="1"></stop></linearGradient></defs></svg>