<svg xmlns="http://www.w3.org/2000/svg" version="1.1" xmlns:xlink="http://www.w3.org/1999/xlink" xmlns:svgjs="http://svgjs.com/svgjs" width="1440" height="560" preserveAspectRatio="none" viewBox="0 0 1440 560"><g mask="url(&quot;#SvgjsMask1000&quot;)" fill="none"><rect width="1440" height="560" x="0" y="0" fill="#0e2a47"></rect><path d="M0,293.125C57.621,286.364,120.119,294.094,167.357,260.412C213.905,227.222,224.564,165.341,250.597,114.444C278.05,60.771,327.458,13.566,324.412,-46.643C321.309,-107.99,281.568,-163.718,234.529,-203.22C190.792,-239.95,126.02,-229.982,75.157,-255.962C7.233,-290.656,-35.335,-382.035,-111.579,-380.003C-185.86,-378.024,-250.202,-312.383,-284.34,-246.382C-316.408,-184.384,-285.784,-111.03,-286.804,-41.236C-287.667,17.836,-305.155,75.314,-289.873,132.381C-272.686,196.563,-252.761,270.665,-194.654,302.887C-136.664,335.044,-65.857,300.852,0,293.125" fill="#0b2239"></path><path d="M1440 1094.3310000000001C1544.037 1089.762 1646.588 1073.656 1737.716 1023.256 1833.115 970.494 1912.696 894.912 1969.171 801.664 2030.629 700.189 2102.876 583.85 2073.444 468.924 2044.114 354.39300000000003 1912.623 305.05899999999997 1822.422 228.63 1746.968 164.69600000000003 1679.6109999999999 93.56599999999997 1587.614 57.271000000000015 1489.278 18.476 1383.031-8.414999999999964 1279.849 14.575000000000045 1173.269 38.322 1067.8319999999999 94.476 1008.6859999999999 186.264 951.809 274.53 975.347 387.736 971.77 492.679 968.596 585.798 964.2339999999999 676.157 988.9259999999999 765.999 1017.3330000000001 869.358 1038.324 987.085 1124.989 1050.167 1212.4859999999999 1113.855 1331.882 1099.08 1440 1094.3310000000001" fill="#113255"></path></g><defs><mask id="SvgjsMask1000"><rect width="1440" height="560" fill="#ffffff"></rect></mask></defs></svg>